<svg width="121" height="132" viewBox="0 0 121 132" fill="none" xmlns="http://www.w3.org/2000/svg">
<path d="M83.3137 18.5739L98.4846 115.061L34.9153 125.848L19.7444 29.3615L83.3137 18.5739Z" fill="white"/>
<path d="M94.9808 120.219L39.1402 129.696C34.9032 130.415 30.92 127.592 30.2612 123.403L15.9913 32.6664C15.3326 28.4778 18.2439 24.4849 22.481 23.7659L78.3215 14.2894C82.5589 13.5703 86.5421 16.3931 87.2008 20.5817L101.471 111.319C102.13 115.508 99.2181 119.5 94.9808 120.219ZM23.5009 30.2514C22.8812 30.3566 22.4555 30.9404 22.5519 31.553L36.8218 122.29C36.9181 122.902 37.5006 123.315 38.1203 123.21L93.9608 113.734C94.5805 113.629 95.0065 113.044 94.9102 112.432L80.6403 21.6951C80.5439 21.0825 79.9612 20.6697 79.3415 20.7749L23.5009 30.2514Z" fill="#67A1C8"/>
<path d="M94.9178 112.491C95.0142 113.101 94.589 113.683 93.9704 113.788L38.203 123.237C37.5841 123.342 37.0023 122.931 36.9059 122.32L30.0082 78.6516C27.8948 79.6793 25.8108 80.6932 23.761 81.6908L30.354 123.43C31.0133 127.604 34.9924 130.417 39.2238 129.7L94.9912 120.25C99.2229 119.533 102.129 115.554 101.47 111.38L91.5838 48.7932C89.5358 49.7844 87.4505 50.7935 85.3343 51.8181L94.9178 112.491Z" fill="#1062C5"/>
<path d="M62.7149 12.3666L59.4074 12.9245C58.5891 13.0625 57.8158 12.5893 57.5462 11.8213C56.3073 8.293 52.6345 6.076 48.7437 6.73231C44.8594 7.38752 42.0654 10.6857 41.9707 14.4296C41.9497 15.2573 41.3564 15.9694 40.527 16.1093L36.9662 16.7099C35.2619 16.9974 34.0954 18.5898 34.3611 20.2667L35.7379 28.9554C36.0036 30.6322 37.6009 31.7587 39.3053 31.4712L65.0539 27.1279C66.7585 26.8404 67.9247 25.2477 67.659 23.5709L66.2822 14.8822C66.0165 13.2054 64.4195 12.0791 62.7149 12.3666ZM49.4578 12.1229C50.9647 11.8687 52.3766 12.8645 52.6114 14.3464C52.8463 15.8287 51.8153 17.2368 50.3084 17.491C48.8016 17.7451 47.3897 16.7491 47.1548 15.2669C46.92 13.7849 47.951 12.377 49.4578 12.1229ZM66.5145 23.4195C66.6914 24.5357 65.9077 25.6056 64.773 25.797L39.1608 30.1173C38.0261 30.3087 36.9529 29.552 36.776 28.4358L36.2949 25.3997C36.2453 25.0862 36.4654 24.7854 36.7843 24.7316L65.3633 19.9108C65.6822 19.857 65.9838 20.0699 66.0334 20.3834L66.5145 23.4195Z" fill="#34485E"/>
<path d="M44.3549 66.2637C40.0579 66.9918 37.1172 71.0179 37.7867 75.2563C38.4561 79.4947 42.4823 82.3403 46.7793 81.6123C51.0762 80.8842 54.017 76.858 53.3475 72.6197C52.678 68.3813 48.6518 65.5356 44.3549 66.2637ZM49.792 71.4584L45.298 77.6113C45.1632 77.7961 44.9657 77.9106 44.7563 77.9461C44.5467 77.9816 44.3245 77.9382 44.1399 77.8075L41.0156 75.5995C40.6461 75.3383 40.5652 74.8264 40.8351 74.4569C41.105 74.0874 41.6239 73.9995 41.9934 74.2607L44.4483 75.996L48.4535 70.5124C48.7234 70.1426 49.2421 70.0548 49.6116 70.3162C49.9813 70.5773 50.0622 71.0889 49.792 71.4584Z" fill="#54DA43"/>
<path d="M40.9896 45.0175C36.6927 45.7455 33.752 49.7717 34.4214 54.0101C35.0909 58.2484 39.1171 61.0941 43.414 60.3661C47.711 59.638 50.6517 55.6118 49.9822 51.3734C49.3128 47.1351 45.2866 44.2894 40.9896 45.0175ZM46.4268 50.2122L41.9327 56.3651C41.798 56.5499 41.6005 56.6644 41.3911 56.6999C41.1814 56.7354 40.9593 56.692 40.7747 56.5613L37.6503 54.3532C37.2809 54.0921 37.2 53.5802 37.4699 53.2107C37.7397 52.8412 38.2587 52.7533 38.6282 53.0144L41.0831 54.7498L45.0883 49.2662C45.3581 48.8964 45.8768 48.8085 46.2464 49.07C46.6161 49.3311 46.6969 49.8427 46.4268 50.2122Z" fill="#54DA42"/>
<path d="M47.7196 87.51C43.4227 88.2381 40.4819 92.2642 41.1514 96.5026C41.8209 100.741 45.847 103.587 50.144 102.859C54.441 102.13 57.3817 98.1043 56.7122 93.866C56.0428 89.6276 52.0166 86.7819 47.7196 87.51ZM53.1568 92.7047L48.6627 98.8576C48.5279 99.0424 48.3305 99.1569 48.1211 99.1924C47.9114 99.2279 47.6893 99.1845 47.5047 99.0538L44.3803 96.8458C44.0108 96.5846 43.93 96.0727 44.1999 95.7032C44.4697 95.3337 44.9887 95.2458 45.3582 95.507L47.813 97.2423L51.8183 91.7587C52.0881 91.3889 52.6068 91.301 52.9763 91.5625C53.3461 91.8236 53.4269 92.3352 53.1568 92.7047Z" fill="#67A1C8"/>
<path fill-rule="evenodd" clip-rule="evenodd" d="M51.9058 48.5335C51.8045 47.8963 52.2536 47.2937 52.9088 47.1875L67.353 44.8459C68.0082 44.7397 68.6215 45.1701 68.7227 45.8073C68.824 46.4445 68.3749 47.0471 67.7197 47.1533L53.2755 49.4949C52.6203 49.6011 52.007 49.1707 51.9058 48.5335Z" fill="#54DA43"/>
<path fill-rule="evenodd" clip-rule="evenodd" d="M60.7827 52.5724C60.6815 51.9352 61.1305 51.3326 61.7857 51.2264L76.2299 48.8848C76.8852 48.7786 77.4984 49.209 77.5997 49.8462C77.7009 50.4834 77.2519 51.086 76.5966 51.1922L62.1524 53.5338C61.4972 53.64 60.884 53.2096 60.7827 52.5724Z" fill="#54DA43"/>
<path fill-rule="evenodd" clip-rule="evenodd" d="M52.6121 53.8599C52.5101 53.2189 52.9589 52.611 53.6144 52.5021L57.5681 51.845C58.2236 51.736 58.8377 52.1673 58.9396 52.8082C59.0416 53.4491 58.5928 54.057 57.9373 54.166L53.9836 54.8231C53.3281 54.932 52.714 54.5008 52.6121 53.8599Z" fill="#54DA43"/>
<path fill-rule="evenodd" clip-rule="evenodd" d="M70.4295 45.5931C70.3275 44.9522 70.7763 44.3443 71.4318 44.2353L75.3854 43.5782C76.041 43.4692 76.655 43.9005 76.757 44.5414C76.8589 45.1823 76.4102 45.7902 75.7546 45.8992L71.801 46.5563C71.1455 46.6653 70.5314 46.234 70.4295 45.5931Z" fill="#54DA43"/>
<path fill-rule="evenodd" clip-rule="evenodd" d="M55.2817 69.8479C55.1805 69.2107 55.6295 68.6081 56.2848 68.5019L70.729 66.1603C71.3842 66.0541 71.9974 66.4845 72.0987 67.1217C72.2 67.7589 71.7509 68.3615 71.0957 68.4677L56.6515 70.8093C55.9962 70.9155 55.383 70.4851 55.2817 69.8479Z" fill="#54DA43"/>
<path fill-rule="evenodd" clip-rule="evenodd" d="M64.1582 73.8868C64.0569 73.2496 64.506 72.647 65.1612 72.5408L79.6054 70.1992C80.2607 70.093 80.8739 70.5234 80.9752 71.1606C81.0764 71.7978 80.6274 72.4004 79.9722 72.5066L65.5279 74.8482C64.8727 74.9544 64.2595 74.524 64.1582 73.8868Z" fill="#54DA43"/>
<path fill-rule="evenodd" clip-rule="evenodd" d="M55.9878 75.1742C55.8859 74.5333 56.3346 73.9254 56.9902 73.8165L60.9438 73.1594C61.5993 73.0504 62.2134 73.4817 62.3153 74.1226C62.4173 74.7635 61.9685 75.3714 61.313 75.4804L57.3594 76.1375C56.7038 76.2464 56.0898 75.8152 55.9878 75.1742Z" fill="#54DA43"/>
<path fill-rule="evenodd" clip-rule="evenodd" d="M73.8052 66.9075C73.7033 66.2665 74.152 65.6586 74.8076 65.5497L78.7612 64.8926C79.4167 64.7836 80.0308 65.2149 80.1327 65.8558C80.2347 66.4967 79.7859 67.1046 79.1304 67.2136L75.1768 67.8707C74.5212 67.9796 73.9072 67.5484 73.8052 66.9075Z" fill="#54DA43"/>
<path fill-rule="evenodd" clip-rule="evenodd" d="M58.625 90.958C58.5237 90.3208 58.9728 89.7182 59.628 89.612L74.0722 87.2704C74.7275 87.1642 75.3407 87.5946 75.442 88.2318C75.5432 88.869 75.0942 89.4716 74.4389 89.5778L59.9947 91.9194C59.3395 92.0256 58.7263 91.5951 58.625 90.958Z" fill="#67A1C8"/>
<path fill-rule="evenodd" clip-rule="evenodd" d="M67.5022 94.9969C67.4009 94.3597 67.85 93.757 68.5052 93.6508L82.9494 91.3092C83.6047 91.203 84.2179 91.6335 84.3192 92.2706C84.4204 92.9078 83.9714 93.5104 83.3161 93.6167L68.8719 95.9583C68.2167 96.0645 67.6035 95.634 67.5022 94.9969Z" fill="#67A1C8"/>
<path fill-rule="evenodd" clip-rule="evenodd" d="M59.3318 96.2843C59.2299 95.6434 59.6786 95.0355 60.3342 94.9265L64.2878 94.2694C64.9433 94.1605 65.5574 94.5917 65.6593 95.2326C65.7613 95.8736 65.3125 96.4815 64.657 96.5904L60.7034 97.2476C60.0478 97.3565 59.4338 96.9253 59.3318 96.2843Z" fill="#67A1C8"/>
<path fill-rule="evenodd" clip-rule="evenodd" d="M77.1487 88.0175C77.0468 87.3766 77.4955 86.7687 78.1511 86.6597L82.1047 86.0026C82.7602 85.8936 83.3743 86.3249 83.4762 86.9658C83.5782 87.6067 83.1294 88.2146 82.4739 88.3236L78.5203 88.9807C77.8647 89.0897 77.2507 88.6584 77.1487 88.0175Z" fill="#67A1C8"/>
<path d="M109.487 70.1568L97.9921 65.2564C97.5754 65.0787 97.085 65.2724 96.902 65.687L95.6287 68.5753C95.446 68.9899 95.6375 69.4742 96.0542 69.652L99.5911 71.1598L98.5943 73.4206L103.015 75.3052L104.012 73.0445L107.548 74.5523C107.965 74.7301 108.456 74.5361 108.638 74.1218L109.912 71.2332C110.095 70.8189 109.903 70.3345 109.487 70.1568Z" fill="#293D52"/>
<path d="M109.2 83.8278L113.041 82.6877C113.478 82.5579 113.939 82.8058 114.066 83.2388L114.952 86.2561C115.079 86.6888 114.826 87.1494 114.389 87.279L110.548 88.4196L109.2 83.8278Z" fill="#293D52"/>
<path d="M111.173 91.0442C111.91 101.547 103.928 110.724 93.3443 111.543C82.7609 112.361 73.5837 104.51 72.8463 94.0074C72.109 83.5047 80.0907 74.3271 90.6741 73.5089C101.258 72.6906 110.435 80.5415 111.173 91.0442Z" fill="white"/>
<path d="M93.5173 114C81.5853 114.923 71.2012 106.04 70.3699 94.1989C69.5386 82.3576 78.57 71.9738 90.5021 71.0512C102.434 70.1287 112.818 79.0114 113.649 90.8527C114.481 102.694 105.45 113.078 93.5173 114ZM90.8471 75.9666C81.646 76.678 74.6821 84.6851 75.3231 93.8159C75.9642 102.946 83.9711 109.796 93.1722 109.085C102.373 108.373 109.337 100.366 108.696 91.2357C108.055 82.1049 100.048 75.2552 90.8471 75.9666Z" fill="#FB782C"/>
<path d="M86.8178 105.653C86.3995 105.686 85.9683 105.613 85.5639 105.421C78.3215 101.989 75.2875 93.3157 78.8011 86.0883C82.3143 78.8608 91.0651 75.7732 98.3081 79.2064C99.5416 79.791 100.056 81.2629 99.458 82.4944C98.8597 83.7251 97.3746 84.2499 96.1405 83.6646C91.3618 81.4001 85.5874 83.4364 83.2687 88.2058C80.9506 92.975 82.9524 98.6975 87.7314 100.963C88.9653 101.548 89.4802 103.02 88.8814 104.251C88.4792 105.079 87.6759 105.587 86.8178 105.653Z" fill="#FF9C70"/>
<path d="M93.7971 91.1027L98.457 81.3256C98.7237 80.7661 98.4836 80.0947 97.9232 79.834C97.3628 79.573 96.6861 79.8178 96.4197 80.3773L91.7597 90.1541C90.928 90.2075 90.1468 90.6987 89.7635 91.5031C89.2046 92.6761 89.7031 94.0702 90.8774 94.6167C92.0517 95.1637 93.4569 94.6556 94.0158 93.4826C94.3993 92.6784 94.2852 91.7703 93.7971 91.1027Z" fill="#293D52"/>
<path d="M97.7615 103.707C97.8497 104.963 96.8948 106.062 95.6282 106.16C94.3616 106.258 93.2636 105.318 93.1754 104.061C93.0871 102.804 94.042 101.706 95.3087 101.609C96.5753 101.511 97.6733 102.45 97.7615 103.707Z" fill="#293D52"/>
<path d="M104.843 97.5671C104.931 98.8241 103.976 99.922 102.709 100.02C101.443 100.118 100.344 99.1787 100.256 97.9217C100.168 96.6648 101.123 95.5668 102.39 95.4689C103.656 95.371 104.754 96.3102 104.843 97.5671Z" fill="#293D52"/>
<path d="M113.796 30.7333C114.168 31.1209 114.781 31.1391 115.165 30.774L115.686 30.278C116.07 29.9129 116.079 29.3024 115.707 28.9151C115.335 28.5274 114.722 28.509 114.338 28.8743L113.817 29.3701C113.434 29.7355 113.424 30.3459 113.796 30.7333Z" fill="#293D52"/>
<path d="M104.109 39.9905C103.738 39.6031 103.747 38.9926 104.131 38.6274L104.651 38.1314C105.036 37.7663 105.648 37.7848 106.02 38.1721C106.392 38.5597 106.383 39.1703 105.999 39.5352L105.478 40.0313C105.094 40.3964 104.481 40.3781 104.109 39.9905Z" fill="#293D52"/>
<path d="M113.612 38.3324C113.995 37.9678 114.607 37.9859 114.978 38.373L115.483 38.8985C115.854 39.2854 115.845 39.8947 115.461 40.2594C115.079 40.6239 114.467 40.6059 114.095 40.2189L113.591 39.6933C113.219 39.3064 113.229 38.6969 113.612 38.3324Z" fill="#293D52"/>
<path d="M104.356 28.6461C104.739 28.2816 105.35 28.2993 105.722 28.6868L106.226 29.2123C106.597 29.5994 106.588 30.2083 106.205 30.5729C105.822 30.9374 105.21 30.9197 104.839 30.5325L104.334 30.0071C103.963 29.62 103.972 29.0105 104.356 28.6461Z" fill="#293D52"/>
<path d="M115.277 34.5649C115.285 34.0334 115.725 33.6153 116.258 33.631L116.983 33.6526C117.517 33.6684 117.943 34.1123 117.935 34.6439C117.926 35.1755 117.487 35.5937 116.953 35.578L116.228 35.5562C115.695 35.5407 115.268 35.0966 115.277 34.5649Z" fill="#293D52"/>
<path d="M101.882 34.2616C101.89 33.7299 102.329 33.3118 102.863 33.3275L103.588 33.3491C104.122 33.365 104.548 33.8088 104.539 34.3404C104.531 34.872 104.092 35.2902 103.558 35.2745L102.833 35.2528C102.299 35.2372 101.873 34.7932 101.882 34.2616Z" fill="#293D52"/>
<path d="M110.04 29.0799C110.574 29.0958 111.014 28.6774 111.022 28.1452L111.033 27.4224C111.041 26.8902 110.615 26.4463 110.081 26.4304C109.547 26.4145 109.107 26.833 109.099 27.3651L109.087 28.088C109.079 28.6201 109.505 29.064 110.04 29.0799Z" fill="#293D52"/>
<path d="M109.736 42.475C110.27 42.4909 110.71 42.0723 110.718 41.54L110.729 40.8176C110.737 40.2854 110.311 39.8414 109.777 39.8251C109.243 39.8092 108.803 40.2281 108.795 40.7602L108.783 41.4827C108.775 42.0148 109.201 42.459 109.736 42.475Z" fill="#293D52"/>
<path d="M8.88666 16.7884C8.61146 17.1282 8.10999 17.1892 7.77235 16.9237L7.41519 16.6428C7.07754 16.3773 7.02664 15.8819 7.30184 15.5421C7.57712 15.2025 8.07851 15.1413 8.41615 15.4067L8.7734 15.6879C9.11104 15.9534 9.16186 16.4485 8.88666 16.7884Z" fill="#293D52"/>
<path d="M11.6388 21.4597C12.0605 21.3408 12.4965 21.583 12.6078 21.9983L12.7258 22.4372C12.837 22.8524 12.5834 23.2894 12.1617 23.4083C11.7401 23.5275 11.3039 23.285 11.1927 22.87L11.0747 22.4309C10.9635 22.0159 11.2172 21.5789 11.6388 21.4597Z" fill="#293D52"/>
<path d="M16.0503 18.5707C16.0744 18.1408 15.7388 17.7767 15.3045 17.7614L14.8453 17.7455C14.411 17.7303 14.0357 18.0699 14.0113 18.4999C13.9873 18.9302 14.3229 19.2943 14.7572 19.3093L15.2166 19.3251C15.6509 19.3403 16.026 19.0008 16.0503 18.5707Z" fill="#293D52"/>
<path d="M12.9202 14.292C12.5141 14.1444 12.0532 14.3554 11.8955 14.7603L11.7291 15.1889C11.5715 15.5941 11.775 16.0465 12.1813 16.1937C12.5874 16.3413 13.0484 16.1305 13.2059 15.7251L13.3724 15.2967C13.5297 14.8917 13.3263 14.4396 12.9202 14.292Z" fill="#293D52"/>
<path d="M7.29938 21.277C7.0638 20.9204 7.1699 20.4316 7.53561 20.1911L7.92213 19.9366C8.28758 19.6962 8.77965 19.7912 9.01531 20.148C9.25089 20.5046 9.1447 20.9931 8.77934 21.2338L8.39247 21.4881C8.02702 21.7285 7.53496 21.6336 7.29938 21.277Z" fill="#293D52"/>
<path d="M2.3213 42.2251C2.3213 42.866 1.80165 43.3857 1.16065 43.3857C0.51965 43.3857 0 42.866 0 42.2251C0 41.5841 0.51965 41.0644 1.16065 41.0644C1.80165 41.0644 2.3213 41.5841 2.3213 42.2251Z" fill="#293D52"/>
<path d="M104.854 16.1925C104.854 17.326 103.935 18.245 102.801 18.245C101.668 18.245 100.749 17.326 100.749 16.1925C100.749 15.059 101.668 14.1399 102.801 14.1399C103.935 14.1399 104.854 15.059 104.854 16.1925Z" fill="#293D52"/>
<path d="M99.3739 47.7984C99.3739 48.1519 99.0873 48.4385 98.7338 48.4385C98.3803 48.4385 98.0938 48.1519 98.0938 47.7984C98.0938 47.4449 98.3803 47.1584 98.7338 47.1584C99.0873 47.1584 99.3739 47.4449 99.3739 47.7984Z" fill="#293D52"/>
<path d="M29.8282 15.4799C29.0041 16.6065 27.4231 16.8516 26.297 16.0275C25.1705 15.2034 24.9253 13.6223 25.7494 12.4963C26.5735 11.3697 28.1546 11.1246 29.2807 11.9487C30.4072 12.7728 30.6518 14.3533 29.8282 15.4799Z" fill="#293D52"/>
</svg>
